<svg xmlns="http://www.w3.org/2000/svg" width="40" height="40" viewBox="0 0 40 40">
    <g fill="none" fill-rule="evenodd">
        <g>
            <rect width="40" height="40" fill="#FFF" rx="2"/>
            <rect width="40" height="40" rx="2"/>
            <rect width="40" height="40" rx="2"/>
            <rect width="40" height="40" rx="2"/>
        </g>
        <path fill="#4285F4" fill-rule="nonzero" d="M28.64 20.205c0-.639-.057-1.252-.164-1.841H20v3.481h4.844a4.14 4.14 0 0 1-1.796 2.716v2.259h2.908c1.702-1.567 2.684-3.875 2.684-6.615z"/>
        <path fill="#34A853" fill-rule="nonzero" d="M20 29c2.43 0 4.467-.806 5.956-2.18l-2.908-2.259c-.806.54-1.837.86-3.048.86-2.344 0-4.328-1.584-5.036-3.711h-3.007v2.332A8.997 8.997 0 0 0 20 29z"/>
        <path fill="#FBBC05" fill-rule="nonzero" d="M14.964 21.71a5.41 5.41 0 0 1-.282-1.71c0-.593.102-1.17.282-1.71v-2.332h-3.007A8.996 8.996 0 0 0 11 20c0 1.452.348 2.827.957 4.042l3.007-2.332z"/>
        <path fill="#EA4335" fill-rule="nonzero" d="M20 14.58c1.321 0 2.508.454 3.44 1.345l2.582-2.58C24.463 11.891 22.426 11 20 11a8.997 8.997 0 0 0-8.043 4.958l3.007 2.332c.708-2.127 2.692-3.71 5.036-3.71z"/>
        <path d="M11 11h18v18H11z"/>
    </g>
</svg>
