<svg id="Layer_1" data-name="Layer 1" xmlns="http://www.w3.org/2000/svg" xmlns:xlink="http://www.w3.org/1999/xlink" viewBox="0 0 309 33"><defs><mask id="mask" x="159.64" y="0" width="22.87" height="33" maskUnits="userSpaceOnUse"><g id="mask0"><path d="M159.64,0h22.87V33H159.64Z" fill="#fff" fill-rule="evenodd"/></g></mask></defs><g mask="url(#mask)"><path d="M166.39,23.07c.09,2.05,1.7,3.87,4.73,3.87,2.7,0,4.59-1.31,4.64-3.4,0-1.45-.6-2.71-3.82-3.64l-3.81-1.07c-7-2.19-8.17-6.34-8.17-9.23,0-5.73,4.82-9.6,10.88-9.6s10.7,3.68,10.7,9.83h-6.7c0-2.14-1.43-3.63-4.09-3.63-2.34,0-4.09,1.3-4.09,3.21,0,.84.33,2.38,3.4,3.27l3.76,1.21c7.67,2.24,8.78,6.62,8.68,9.69C182.41,30,176.72,33,171.12,33c-6.89,0-11.48-4.15-11.48-9.93Z" fill="#fff" fill-rule="evenodd"/></g><path d="M214,.37l-9.46,20.7L195,.37H189.4l-3.9,32.12h6.75l2.24-19.25,7.44,15.56h5.19l7.39-15.56,2.21,19.25h6.74L219.61.37Z" fill="#fff" fill-rule="evenodd"/><path d="M237.13.37,225.37,32.49h7.17l2.8-7.6h10.92l2.8,7.6h7.07L244.43.37Zm3.62,7.41L244.11,19h-6.57Z" fill="#fff" fill-rule="evenodd"/><path d="M282.27,10.91c0-5.27-3.35-10.54-10.51-10.54H258.82V32.49h6.74V21.39h1.52l7.07,11.1h8.08l-7.85-11.38c5.42-1.16,7.89-5.64,7.89-10.2m-11,4.52h-5.7v-9h5.88c2.53,0,3.81,2.51,3.81,4.52s-1.38,4.52-4,4.52" fill="#fff" fill-rule="evenodd"/><path d="M284.55.37V6.53h8.54v26h6.8v-26h8.54V.37Z" fill="#fff" fill-rule="evenodd"/><path d="M28.46.81,19,21.51,9.46.81H3.9L0,32.93H6.75L9,13.68l7.44,15.56h5.18L29,13.68l2.21,19.25H38L34.11.81Z" fill="#3deda4" fill-rule="evenodd"/><path d="M55.59,26.19A9.49,9.49,0,0,0,65,16.5a9.35,9.35,0,1,0-18.69,0,9.45,9.45,0,0,0,9.32,9.69M55.59,0A16.19,16.19,0,0,1,71.66,16.5a16,16,0,1,1-32.09,0A16.18,16.18,0,0,1,55.59,0" fill="#3deda4" fill-rule="evenodd"/><path d="M92.13.37V19.58L81.3.37H75.15V32.49h6.7V13.05l11,19.44h6V.37Z" fill="#3deda4" fill-rule="evenodd"/><path d="M105.46.37V32.49h20.43v-6H112.16V19.62h11.66V13.7H112.16V6.39h13.32v-6Z" fill="#3deda4" fill-rule="evenodd"/><path d="M131.3.27h6a34,34,0,0,1,5.16,7.24,41.71,41.71,0,0,0-3.3,10.12,28.34,28.34,0,0,0-9.47-15.42L127.43.27Zm14,7.24A33.69,33.69,0,0,1,150.45.27h9.84l-2.24,1.94a28.38,28.38,0,0,0-9.46,15.42,63.36,63.36,0,0,0-1.41,14.86h-6.64c0-8.36.73-15.54,3.32-21.91a31.67,31.67,0,0,1,1.43-3.07Z" fill="#3deda4" fill-rule="evenodd"/></svg>