<?xml version="1.0" encoding="UTF-8"?><svg id="uuid-b070fbbe-eea3-4021-b1b7-0fa85ec925be" xmlns="http://www.w3.org/2000/svg" viewBox="0 0 50 50"><path d="m25.11,47.02c-1.76,0-3.55-.21-5.32-.66-7.09-1.77-12.54-6.78-14.6-13.4l3.15-.98c1.71,5.51,6.29,9.69,12.25,11.18,9.33,2.33,18.93-2.82,21.41-11.49l3.17.91c-2.49,8.69-10.9,14.43-20.06,14.43Z" fill="#3deda4"/><polygon points="5.56 27.12 3.12 36.1 12.67 33.59 5.56 27.12" fill="#3deda4"/><path d="m8,18.32l-3.17-.91C7.8,7.06,19.19.88,30.22,3.64c7.09,1.77,12.54,6.78,14.6,13.4l-3.15.98c-1.71-5.51-6.29-9.69-12.25-11.18-9.33-2.33-18.93,2.82-21.41,11.49Z" fill="#3deda4"/><polygon points="44.44 22.88 46.88 13.9 37.33 16.41 44.44 22.88" fill="#3deda4"/><circle cx="25" cy="24.92" r="12.18" fill="#3deda4"/><path d="m25.63,31.39v1.89l-1.44-.02v-1.89c-2.33-.28-3.84-1.89-3.84-3.94h2.8c0,.99.71,1.68,1.95,1.68,1.1,0,1.73-.61,1.73-1.42,0-.55-.34-1.1-1.5-1.44l-1.52-.45c-2.84-.77-3.35-2.46-3.35-3.61,0-2.01,1.58-3.45,3.74-3.74v-1.89h1.44v1.89c2.19.26,3.65,1.77,3.63,3.9h-2.8c.02-.95-.59-1.6-1.56-1.6s-1.62.61-1.62,1.4c0,.3.1.93,1.32,1.26l1.4.41c1.95.55,3.65,1.58,3.65,3.74,0,2.29-1.85,3.63-4.02,3.84Z" fill="#132b46"/></svg>