<?xml version="1.0" encoding="UTF-8"?><svg id="uuid-648b4e00-6dd0-46a7-8940-df3a0871a1bd" xmlns="http://www.w3.org/2000/svg" viewBox="0 0 50 50"><path d="m25.54,18.33s1.13-10.41,7.07-11.44c7.04-1.22,8,7.2,1.36,9.07-6.65,1.86-8.43,2.38-8.43,2.38Z" fill="none" stroke="#3deda4" stroke-miterlimit="10" stroke-width="2"/><path d="m24.46,18.33s-1.13-10.41-7.07-11.44c-7.04-1.22-8,7.2-1.36,9.07,6.65,1.86,8.43,2.38,8.43,2.38Z" fill="none" stroke="#3deda4" stroke-miterlimit="10" stroke-width="2"/><rect x="5.33" y="16.33" width="39.33" height="9.29" fill="#3deda4"/><path d="m7.96,27.92h34.08v14.04c0,1.77-1.44,3.21-3.21,3.21H11.17c-1.77,0-3.21-1.44-3.21-3.21v-14.04h0Z" fill="#3deda4"/><rect x="20.68" y="16.33" width="8.64" height="30.33" fill="#132b46"/></svg>