<?xml version="1.0" encoding="UTF-8"?><svg id="uuid-d0742b32-da6c-4b1b-b7eb-bc18efe47c8e" xmlns="http://www.w3.org/2000/svg" viewBox="0 0 50 50"><polygon points="47.85 41.34 44.01 46.25 32.41 36.12 35.21 32.54 47.85 41.34" fill="#3deda4"/><path d="m20.03,41.14c-3.85,0-7.73-1.24-11-3.79C1.25,31.28-.14,20.01,5.94,12.23c6.08-7.78,17.35-9.17,25.13-3.09h0c7.78,6.08,9.16,17.35,3.09,25.13-3.53,4.51-8.8,6.87-14.13,6.87Zm.03-31.39c-4.02,0-8,1.78-10.65,5.18-4.58,5.87-3.54,14.37,2.33,18.95,5.87,4.58,14.37,3.54,18.95-2.33,4.58-5.87,3.54-14.37-2.33-18.95h0c-2.46-1.92-5.39-2.86-8.3-2.86Z" fill="#3deda4"/><polygon points="22.76 19.44 28.91 20.16 24.6 24.6 25.82 30.67 20.26 27.94 14.86 30.98 15.74 24.85 11.18 20.66 17.28 19.59 19.86 13.97 22.76 19.44" fill="#3deda4"/></svg>