<?xml version="1.0" encoding="UTF-8"?><svg id="uuid-62d89a44-11a4-43d7-92a9-d4b32ee7779e" xmlns="http://www.w3.org/2000/svg" viewBox="0 0 50 50"><polygon points="30.78 7.32 37.97 7.04 39.77 14 45.75 17.99 43.12 24.69 45.61 31.44 39.55 35.31 37.6 42.23 30.42 41.79 24.77 46.25 19.22 41.68 12.03 41.96 10.23 35 4.25 31 6.88 24.31 4.39 17.56 10.45 13.69 12.4 6.77 19.58 7.2 25.23 2.75 30.78 7.32" fill="#3deda4"/><path d="m15.23,18.7c0-2.46,1.93-4.46,4.43-4.46s4.46,2,4.46,4.46-2,4.43-4.46,4.43-4.43-1.93-4.43-4.43Zm6.32,0c0-1.03-.87-1.9-1.9-1.9-1.1,0-1.9.87-1.9,1.9,0,1.1.8,1.9,1.9,1.9,1.03,0,1.9-.8,1.9-1.9Zm-3.49,17.84l11.45-22.93h2.63l-11.48,22.93h-2.6Zm7.55-4.13c0-2.46,1.93-4.46,4.43-4.46s4.46,2,4.46,4.46-2,4.43-4.46,4.43-4.43-1.93-4.43-4.43Zm6.36,0c0-1.06-.87-1.93-1.93-1.93s-1.9.87-1.9,1.93.8,1.9,1.9,1.9,1.93-.8,1.93-1.9Z" fill="#132b46"/></svg>