<?xml version="1.0" encoding="UTF-8"?><svg id="uuid-ec9e6306-b1fc-445a-b364-6a84d56e831f" xmlns="http://www.w3.org/2000/svg" viewBox="0 0 50 50"><path d="m20.7,11.12H2.36v27.59h18.34c2.36,0,4.28,1.91,4.3,4.27h0V15.43c0-2.38-1.93-4.3-4.3-4.3Z" fill="#5ccc5e"/><path d="m20.7,11.12H2.36v27.59h18.34c2.36,0,4.28,1.91,4.3,4.27h0V15.43c0-2.38-1.93-4.3-4.3-4.3Z" fill="#3deda4"/><path d="m29.3,11.02h18.34v27.59h-18.34c-2.36,0-4.28,1.91-4.3,4.27h0V15.32c0-2.38,1.93-4.3,4.3-4.3Z" fill="#3deda4"/><path d="m25,46.67c-.52,0-.94-.48-.94-1.06V12.71c0-.59.42-1.06.94-1.06s.94.48.94,1.06v32.9c0,.59-.42,1.06-.94,1.06Z" fill="#132b46"/><path d="m43.43,20.69h-11.66c-.52,0-.94-.42-.94-.94s.42-.94.94-.94h11.66c.52,0,.94.42.94.94s-.42.94-.94.94Z" fill="#132b46"/><path d="m43.43,25.58h-11.66c-.52,0-.94-.42-.94-.94s.42-.94.94-.94h11.66c.52,0,.94.42.94.94s-.42.94-.94.94Z" fill="#132b46"/><path d="m43.43,30.48h-11.66c-.52,0-.94-.42-.94-.94s.42-.94.94-.94h11.66c.52,0,.94.42.94.94s-.42.94-.94.94Z" fill="#132b46"/><polygon points="13.52 29.44 8.94 31.84 9.81 26.75 6.11 23.14 11.23 22.39 13.52 17.76 15.8 22.39 20.92 23.14 17.22 26.75 18.09 31.84 13.52 29.44" fill="#132b46"/></svg>