<?xml version="1.0" encoding="UTF-8"?><svg id="Layer_1" xmlns="http://www.w3.org/2000/svg" viewBox="0 0 50 50"><defs><style>.cls-1{fill:#1c1b1a;}.cls-2{fill:#3deda4;}.cls-3{fill:#132b46;}</style></defs><rect class="cls-1" x="8.08" y="29.02" width="24.39" height="3.56"/><rect class="cls-2" x="2.29" y="11.11" width="45.41" height="27.78" rx="2.94" ry="2.94"/><rect class="cls-3" x="5.84" y="20.47" width="7.25" height="5.94" rx="1.21" ry="1.21"/><g><path class="cls-3" d="M12.49,32.64H6.72c-.55,0-1-.45-1-1s.45-1,1-1h5.77c.55,0,1,.45,1,1s-.45,1-1,1Z"/><path class="cls-3" d="M23.11,32.64h-5.77c-.55,0-1-.45-1-1s.45-1,1-1h5.77c.55,0,1,.45,1,1s-.45,1-1,1Z"/><path class="cls-3" d="M33.05,32.64h-5.77c-.55,0-1-.45-1-1s.45-1,1-1h5.77c.55,0,1,.45,1,1s-.45,1-1,1Z"/><path class="cls-3" d="M43.25,32.64h-5.77c-.55,0-1-.45-1-1s.45-1,1-1h5.77c.55,0,1,.45,1,1s-.45,1-1,1Z"/></g></svg>